<svg id="Layer_1" data-name="Layer 1" xmlns="http://www.w3.org/2000/svg" viewBox="0 0 524.92 476"><defs><style>.cls-1{fill:#fdfdfd;}.cls-1,.cls-2,.cls-3{fill-rule:evenodd;}.cls-2{fill:#fcfcfc;}.cls-3{fill:#ababab;}</style></defs><title>for black bg y logo last</title><path class="cls-1" d="M508.5,751.5q-34.74-1.5-70-1a182.86,182.86,0,0,0-1-27,1063.24,1063.24,0,0,0-8.5-128,222.36,222.36,0,0,0-40-99A124.43,124.43,0,0,0,360.5,472a300.68,300.68,0,0,0-73-27q-50.92-21.62-57-76.5a40.86,40.86,0,0,1,6.5-24A139.61,139.61,0,0,1,276.5,307q25.88-16.32,52.5-31.5a8,8,0,0,1-2,5,267.56,267.56,0,0,0-34,52q-6.45,17.13,4,32A113.52,113.52,0,0,0,338.5,389q63.63,4.69,114,43A962.89,962.89,0,0,1,536,509.5l32,34a476,476,0,0,0-16,66q-7.63,70.79-8.5,142Z" transform="translate(-230.47 -275.5)"/><path class="cls-2" d="M657.5,277.5a556.48,556.48,0,0,1,71,46.5A83,83,0,0,1,755,361.5q3.12,33.64-19,59A97.47,97.47,0,0,1,703.5,445q-19.75,6.45-40,11a180.83,180.83,0,0,0-53,27L595,498.5q-6.27,8.55-12.5,17-32.91-34.92-67-69a234.06,234.06,0,0,1,83-47.5q26.46-5.42,53-10A115.54,115.54,0,0,0,688,368.5q12-16,5-35-4.62-9.74-10-19Q670.46,295.74,657.5,277.5Z" transform="translate(-230.47 -275.5)"/><path class="cls-3" d="M437.5,723.5a182.86,182.86,0,0,1,1,27q35.26-.5,70,1h-71Z" transform="translate(-230.47 -275.5)"/></svg>