<svg id="Layer_1" data-name="Layer 1" xmlns="http://www.w3.org/2000/svg" viewBox="0 0 525.57 477.12"><defs><style>.cls-1{fill:#484848;}.cls-1,.cls-2,.cls-3,.cls-4,.cls-5{fill-rule:evenodd;}.cls-2{fill:#010101;}.cls-3{fill:#020202;}.cls-4{fill:#696969;}.cls-5{fill:#6a6a6a;}</style></defs><title>for white bg y logo last</title><path class="cls-1" d="M249.5,202.5a1.62,1.62,0,0,0-2-1c1.26-1,2.6-2,4-3Q252.85,201.27,249.5,202.5Z" transform="translate(-152.43 -198.5)"/><path class="cls-2" d="M247.5,201.5a1.62,1.62,0,0,1,2,1,302.09,302.09,0,0,0-33.5,52q-9.93,29.4,17.5,44.5a247,247,0,0,0,28,13,220.43,220.43,0,0,1,84,24,361.35,361.35,0,0,1,70,54q38.34,37.33,74.5,76.5a4.23,4.23,0,0,1,0,4,341.48,341.48,0,0,0-19,89q-3.75,47.94-4.5,96a91.12,91.12,0,0,0-1,19h-39q-32.75-1.5-66-1a290.21,290.21,0,0,0-1-34q-.75-37.51-2.5-75a365.81,365.81,0,0,0-18-95A163.47,163.47,0,0,0,298.5,406q-8.24-6.37-17-12a436.59,436.59,0,0,0-43-19q-54.83-6.51-79.5-55.5-16-33,7-61A211,211,0,0,1,203.5,227,483,483,0,0,1,247.5,201.5Z" transform="translate(-152.43 -198.5)"/><path class="cls-3" d="M580.5,201.5a410.3,410.3,0,0,1,78,52.5A74.15,74.15,0,0,1,678,287.5q-.29,45.81-37.5,72.5a160.51,160.51,0,0,1-15,8q-19.86,6.08-40,11-16.62,6.71-33,14A129.56,129.56,0,0,0,505,438.5q-32.56-35.07-66.5-69,56.43-51.19,133-56.5A95.89,95.89,0,0,0,614,287.5a34.76,34.76,0,0,0,2-30A346.27,346.27,0,0,0,580.5,201.5Z" transform="translate(-152.43 -198.5)"/><path class="cls-4" d="M466.5,655.5v20a49.45,49.45,0,0,1-14-1h13A91.12,91.12,0,0,1,466.5,655.5Z" transform="translate(-152.43 -198.5)"/><path class="cls-5" d="M359.5,639.5a290.21,290.21,0,0,1,1,34q33.25-.5,66,1h-67Z" transform="translate(-152.43 -198.5)"/></svg>